2.2Hzhigh_3min_grf.mot
version=1
nRows=17
nColumns 19
inDegrees=yes
endheader
time	1_ground_force_vx	1_ground_force_vy	1_ground_force_vz	1_ground_force_px	1_ground_force_py	1_ground_force_pz	1_ground_torque_x	1_ground_torque_y	1_ground_torque_z	2_ground_force_vx	2_ground_force_vy	2_ground_force_vz	2_ground_force_px	2_ground_force_py	2_ground_force_pz	2_ground_torque_x	2_ground_torque_y	2_ground_torque_z
            0.005000	          -40.027101	         1606.952525	         -135.901436	           -0.244339	            0.006168	           -0.393086	           -0.356107	           14.296503	           -1.209068	          -33.379604	         1644.422756	          139.016241	           -0.207252	            0.005741	           -0.699271	            0.177975	           -8.767803	           -0.741213
            0.005500	          -40.487128	         1606.955189	         -136.542258	           -0.244302	            0.006169	           -0.393093	           -0.359573	           14.271643	           -1.212655	          -34.367691	         1645.704902	          139.959821	           -0.207167	            0.005741	           -0.699317	            0.182598	           -8.743765	           -0.743618
            0.006000	          -40.399195	         1606.961694	         -138.055742	           -0.244228	            0.006169	           -0.393143	           -0.355949	           14.158622	           -1.216382	          -35.306957	         1646.435146	          140.854475	           -0.207132	            0.005742	           -0.699329	            0.186664	           -8.704505	           -0.744681
            0.006500	          -40.494903	         1607.148732	         -139.659703	           -0.244240	            0.006169	           -0.393095	           -0.348110	           13.815697	           -1.200571	          -36.714056	         1646.979130	          141.748669	           -0.207055	            0.005742	           -0.699291	            0.190334	           -8.538333	           -0.734859
            0.007000	          -40.222801	         1607.153897	         -140.852631	           -0.244141	            0.006168	           -0.393074	           -0.336982	           13.464542	           -1.180046	          -37.931681	         1646.970883	          142.828556	           -0.207008	            0.005742	           -0.699311	            0.195385	           -8.483484	           -0.735704
            0.007500	          -40.502219	         1606.080175	         -142.690823	           -0.244127	            0.006169	           -0.393107	           -0.332011	           13.165617	           -1.169688	          -38.824698	         1647.884873	          143.864624	           -0.206908	            0.005743	           -0.699464	            0.198461	           -8.423543	           -0.735397
            0.008000	          -40.413016	         1605.363530	         -143.748817	           -0.243988	            0.006169	           -0.393091	           -0.329426	           13.086099	           -1.171767	          -39.855776	         1648.062888	          144.522728	           -0.206813	            0.005743	           -0.699432	            0.200531	           -8.292078	           -0.727153
            0.008500	          -40.689295	         1603.923907	         -144.350472	           -0.243929	            0.006169	           -0.393116	           -0.332797	           13.118477	           -1.180641	          -40.603428	         1647.686757	          145.929560	           -0.206818	            0.005743	           -0.699503	            0.202453	           -8.215554	           -0.727621
            0.009000	          -40.828542	         1602.124946	         -145.183258	           -0.243906	            0.006169	           -0.393130	           -0.333476	           13.085692	           -1.185815	          -41.073506	         1648.234201	          146.870292	           -0.206725	            0.005744	           -0.699582	            0.202548	           -8.128017	           -0.724269
            0.009500	          -40.830897	         1600.687342	         -146.244116	           -0.243842	            0.006169	           -0.393173	           -0.327649	           12.844786	           -1.173542	          -41.630559	         1646.939108	          147.992207	           -0.206616	            0.005745	           -0.699625	            0.202709	           -8.019316	           -0.720607
            0.010000	          -40.696474	         1599.611293	         -147.578914	           -0.243755	            0.006169	           -0.393155	           -0.317423	           12.476593	           -1.151081	          -42.425851	         1646.748136	          149.118163	           -0.206652	            0.005745	           -0.699735	            0.202859	           -7.873937	           -0.713009
            0.010500	          -40.424957	         1599.076871	         -149.049305	           -0.243670	            0.006169	           -0.393082	           -0.306912	           12.140413	           -1.131603	          -43.026536	         1644.533069	          150.002164	           -0.206476	            0.005745	           -0.699636	            0.200788	           -7.674385	           -0.700001
            0.011000	          -40.243566	         1597.458539	         -149.973850	           -0.243632	            0.006168	           -0.393020	           -0.301976	           11.986859	           -1.125360	          -43.635010	         1644.526183	          151.316410	           -0.206470	            0.005746	           -0.699853	            0.199253	           -7.509490	           -0.690964
            0.011500	          -40.245804	         1594.759181	         -151.085986	           -0.243514	            0.006169	           -0.393120	           -0.302220	           11.975604	           -1.134557	          -44.099003	         1643.415341	          152.485877	           -0.206412	            0.005746	           -0.699902	            0.197061	           -7.343790	           -0.681401
            0.012000	          -40.614873	         1594.402647	         -152.049593	           -0.243416	            0.006168	           -0.392872	           -0.304815	           11.965993	           -1.141132	          -43.996215	         1641.017985	          153.509728	           -0.206318	            0.005746	           -0.699822	            0.194789	           -7.265459	           -0.679650
            0.012500	          -40.478201	         1590.980212	         -152.660743	           -0.243325	            0.006168	           -0.392996	           -0.303643	           11.934556	           -1.145167	          -43.897406	         1639.725595	          154.537492	           -0.206348	            0.005747	           -0.700074	            0.190706	           -7.123572	           -0.671368
            0.013000	          -40.708976	         1589.541188	         -153.400053	           -0.243250	            0.006168	           -0.392818	           -0.297090	           11.600302	           -1.119497	          -44.170746	         1637.695290	          155.562818	           -0.206242	            0.005748	           -0.700106	            0.187453	           -6.950107	           -0.660183
